# xmcd
#
# Track frame offsets:
#	150
#	21516
#	38887
#	63385
#	82304
#	98146
#	119054
#	139328
#	156932
#	183495
#
# Disc length: 2689 seconds
#
# Revision: 3309525281
# Processed by: cddbd v1.5.2PL0 Copyright (c) Steve Scherf et al.
# Submitted via: EZCDAudioConverter 8.0.2.1
#
DISCID=950a7f0a
DTITLE=Jimmii J.C. Nguyễn - Vĩnh Biệt Màu Xanh
DYEAR=1998
DGENRE=
TTITLE0=Thiên đưởng không tim tháy
TTITLE1=Vĩnh Biệt Màu Xanh
TTITLE2=Con tim đang cố quên em
TTITLE3=Tình yêu còn xa
TTITLE4=Tình xưa nghia cũ 2
TTITLE5=Chiều nghe biển khóc
TTITLE6=Tình đầu
TTITLE7=Trái tim biết khóc
TTITLE8=Vô tình
TTITLE9=Ta trở vể
EXTD=
EXTT0=
EXTT1=
EXTT2=
EXTT3=
EXTT4=
EXTT5=
EXTT6=
EXTT7=
EXTT8=
EXTT9=
PLAYORDER=
